<svg xmlns="http://www.w3.org/2000/svg" width="20.55" height="24.48" viewBox="0 0 20.55 24.48">
  <path id="Path_4617" data-name="Path 4617" d="M14.04,28.191h6.246a2.788,2.788,0,0,0,5.577,0h6.246a.917.917,0,0,0,.836-.474.944.944,0,0,0,0-.976l-1.729-3.1a5.14,5.14,0,0,1-.641-2.482V17.205a3.737,3.737,0,0,0-.028-.558v-.139c-.028-.167-.028-.335-.056-.474,0-.084-.028-.167-.028-.223-.028-.084-.028-.167-.056-.251a5.027,5.027,0,0,0-.139-.53c0-.028-.028-.056-.028-.084A7.923,7.923,0,0,0,28.79,12.3a.027.027,0,0,0-.028-.028,6.6,6.6,0,0,0-.753-.781c-.028-.028-.084-.056-.112-.084-.112-.084-.223-.2-.335-.279a1.547,1.547,0,0,1-.223-.167,1.18,1.18,0,0,0-.2-.139c-.139-.084-.279-.167-.39-.251-.028-.028-.056-.028-.084-.056-.167-.084-.307-.167-.474-.251a.027.027,0,0,1-.028-.028c-.2-.084-.362-.167-.558-.251h0a4.805,4.805,0,0,0-.586-.2V8.952a1.952,1.952,0,1,0-3.9,0V9.76c-.028,0-.028,0-.056.028a2.454,2.454,0,0,0-.418.139l-.251.084c-.028,0-.056.028-.084.028a7.5,7.5,0,0,0-3.681,3.123c0,.028-.028.028-.028.056-.084.167-.2.335-.279.5l-.084.167c-.028.084-.084.167-.112.251-.056.139-.112.251-.167.39a1.778,1.778,0,0,0-.056.2,2.054,2.054,0,0,0-.112.39c0,.028-.028.084-.028.112-.028.167-.084.335-.112.5,0,.028-.028.084-.028.112a3.416,3.416,0,0,0-.056.53v.112a3.555,3.555,0,0,0-.028.558v4.1a5.14,5.14,0,0,1-.641,2.482l-1.729,3.1a1.012,1.012,0,0,0,0,.976A.962.962,0,0,0,14.04,28.191Zm9.034,1.673A1.678,1.678,0,0,1,21.4,28.191h3.346A1.678,1.678,0,0,1,23.074,29.864ZM22.238,8.952a.836.836,0,1,1,1.673,0v.613a5.731,5.731,0,0,0-.976-.056,5.87,5.87,0,0,0-.7.056ZM15.88,24.176a6.4,6.4,0,0,0,.781-3.039v-4.1a3.031,3.031,0,0,1,.028-.5v-.084c.028-.167.028-.307.056-.474a.168.168,0,0,1,.028-.112,2.611,2.611,0,0,1,.112-.446c0-.028.028-.084.028-.112.028-.112.084-.251.112-.362.028-.056.056-.139.084-.2a.991.991,0,0,1,.112-.251l.167-.335a.609.609,0,0,1,.084-.139,6.552,6.552,0,0,1,3.011-2.816c.028,0,.056-.028.084-.028a1.359,1.359,0,0,1,.307-.112c.112-.028.2-.084.307-.112.056-.028.112-.028.167-.056.139-.028.279-.084.446-.112a5.642,5.642,0,0,1,1.2-.139,5.819,5.819,0,0,1,1.7.223c.056.028.112.028.167.056.167.056.335.112.53.167h.028a6.311,6.311,0,0,1,1.617.948h0c.167.139.335.279.474.418a6.947,6.947,0,0,1,1.7,2.76c0,.028,0,.056.028.056a2.323,2.323,0,0,1,.112.418c.028.084.028.139.056.223,0,.056.028.139.028.2a2.153,2.153,0,0,1,.056.418v.112c0,.167.028.335.028.5v3.959a6.484,6.484,0,0,0,.781,3.039l1.589,2.928H14.263Z" transform="translate(-12.791 -6.75)" fill="#fff" stroke="#fff" stroke-width="0.5"/>
</svg>
