<svg xmlns="http://www.w3.org/2000/svg" width="24.21" height="25.7" viewBox="0 0 24.21 25.7">
  <g id="ic_profile" transform="translate(-5.65 -4.15)">
    <g id="Group_6485" data-name="Group 6485" transform="translate(6 5.5)">
      <g id="Group_6484" data-name="Group 6484" transform="translate(0 0)">
        <path id="Path_5066" data-name="Path 5066" d="M32,18a6,6,0,1,0-6-6A6.018,6.018,0,0,0,32,18ZM32,7.091A4.909,4.909,0,1,1,27.091,12,4.924,4.924,0,0,1,32,7.091Z" transform="translate(-20.286 -7)" fill="#e4b343" stroke="#e4b343" stroke-width="0.7"/>
        <path id="Path_5067" data-name="Path 5067" d="M8.631,62.427H26.879a2.656,2.656,0,0,0,2.631-2.686,9.352,9.352,0,0,0-2.071-5.886,6.751,6.751,0,0,0-7.445-2.086,7.15,7.15,0,0,1-4.506,0,6.649,6.649,0,0,0-7.417,2.086A9.352,9.352,0,0,0,6,59.742,2.656,2.656,0,0,0,8.631,62.427Zm.28-7.857a5.469,5.469,0,0,1,4.282-2.029,6.5,6.5,0,0,1,1.931.314,8.119,8.119,0,0,0,5.206,0,5.572,5.572,0,0,1,6.213,1.714,8.108,8.108,0,0,1,1.847,5.171,1.521,1.521,0,0,1-1.511,1.543H8.631A1.521,1.521,0,0,1,7.12,59.742,8.382,8.382,0,0,1,8.911,54.57Z" transform="translate(-6 -38.427)" fill="#e4b343" stroke="#e4b343" stroke-width="0.7"/>
      </g>
    </g>
  </g>
</svg>
