<svg xmlns="http://www.w3.org/2000/svg" width="23.243" height="29.875" viewBox="0 0 23.243 29.875">
  <g id="Group_6795" data-name="Group 6795" transform="translate(0.25 0.25)" opacity="0.6">
    <g id="Group_4551" data-name="Group 4551">
      <path id="Path_2868" data-name="Path 2868" d="M586.372,544A11.389,11.389,0,0,0,575,555.406c0,9.226,11.372,17.9,11.372,17.9s11.372-8.679,11.372-17.9A11.389,11.389,0,0,0,586.372,544Zm9.841,11.406a13.408,13.408,0,0,1-1.6,5.969,27.539,27.539,0,0,1-3.681,5.4,42.034,42.034,0,0,1-4.563,4.554,41.948,41.948,0,0,1-4.524-4.51,27.649,27.649,0,0,1-3.705-5.416,13.429,13.429,0,0,1-1.612-6,9.841,9.841,0,1,1,19.683,0Zm-9.841-5.081a5.291,5.291,0,1,0,5.29,5.29A5.29,5.29,0,0,0,586.372,550.324Zm0,9.046a3.756,3.756,0,1,1,3.756-3.756,3.76,3.76,0,0,1-3.756,3.756Z" transform="translate(-575 -544)" fill="#fff" stroke="#fff" stroke-width="0.5" fill-rule="evenodd"/>
    </g>
  </g>
</svg>
