<svg xmlns="http://www.w3.org/2000/svg" width="25.117" height="25.117" viewBox="0 0 25.117 25.117">
  <g id="Group_6796" data-name="Group 6796" opacity="0.6">
    <path id="Path_2883" data-name="Path 2883" d="M6.186,27.117H22.931a4.186,4.186,0,0,0,4.186-4.186V8.279a4.186,4.186,0,0,0-4.186-4.186H21.884V3.047a1.047,1.047,0,0,0-2.093,0V4.093H15.605V3.047a1.047,1.047,0,1,0-2.093,0V4.093H9.326V3.047a1.047,1.047,0,1,0-2.093,0V4.093H6.186A4.186,4.186,0,0,0,2,8.279V22.931a4.186,4.186,0,0,0,4.186,4.186Zm16.745-2.093H6.186a2.093,2.093,0,0,1-2.093-2.093V12.465H25.024V22.931A2.093,2.093,0,0,1,22.931,25.024ZM6.186,6.186H7.233V7.233a1.047,1.047,0,1,0,2.093,0V6.186h4.186V7.233a1.047,1.047,0,1,0,2.093,0V6.186h4.186V7.233a1.047,1.047,0,0,0,2.093,0V6.186h1.047a2.093,2.093,0,0,1,2.093,2.093v2.093H4.093V8.279A2.093,2.093,0,0,1,6.186,6.186Z" transform="translate(-2 -2)" fill="#fff"/>
    <path id="Path_2884" data-name="Path 2884" d="M40.584,54.3,37.138,57.75,35.785,56.4A1.047,1.047,0,1,0,34.3,57.878L36.4,59.972a1.047,1.047,0,0,0,1.481,0l4.186-4.186A1.047,1.047,0,1,0,40.584,54.3Z" transform="translate(-25.626 -40.393)" fill="#fff"/>
  </g>
</svg>
