<svg id="Group_6797" data-name="Group 6797" xmlns="http://www.w3.org/2000/svg" width="26.522" height="27.139" viewBox="0 0 26.522 27.139">
  <path id="Path_2867" data-name="Path 2867" d="M19.7,958.545,7.366,967.8a.94.94,0,0,0-.366.742v16.037a.961.961,0,0,0,.925.925H32.6a.961.961,0,0,0,.925-.925V968.539a.945.945,0,0,0-.366-.742L20.82,958.545A.947.947,0,0,0,19.7,958.545Zm.559,1.9L31.672,969v14.649H8.85V969Z" transform="translate(-7 -958.362)" fill="#e4b343"/>
  <path id="Path_326" data-name="Path 326" d="M53.886,56.128a2.833,2.833,0,0,0,2.02-.866.057.057,0,0,1,.058-.058,2.751,2.751,0,0,0,.693-1.27l.981-1.847.981,1.847a2.751,2.751,0,0,0,.693,1.27.057.057,0,0,0,.058.058,2.939,2.939,0,0,0,2.02.866A2.886,2.886,0,1,0,59.195,51.4l-.577-1.1,2.655-5.021a.852.852,0,0,0-1.5-.808l-2.135,3.982L55.5,44.471a.852.852,0,0,0-1.5.808L56.656,50.3l-.577,1.1a2.878,2.878,0,1,0-2.193,4.732Zm6.348-2.886A1.154,1.154,0,1,1,61.388,54.4a1.216,1.216,0,0,1-.75-.289l-.4-.75Zm-6.348-1.154a1.158,1.158,0,0,1,1.154,1.154v.115l-.4.75a1.215,1.215,0,0,1-.75.289,1.154,1.154,0,1,1,0-2.308Z" transform="translate(-44.771 -34.604)" fill="#e4b343"/>
</svg>
