<svg xmlns="http://www.w3.org/2000/svg" width="24.715" height="25.921" viewBox="0 0 24.715 25.921">
  <path id="Path_342" data-name="Path 342" d="M26.933,959.336a6.791,6.791,0,0,0-6.725,5.917L16.8,964.2a.829.829,0,0,0-.527,0L9.64,966.252a.9.9,0,0,0-.64.867v6.388a.9.9,0,1,0,1.809,0v-5.728l4.822-1.489v15.348l-4.822,1.5v-6.614a.9.9,0,1,0-1.809,0v7.839a.9.9,0,0,0,1.168.857l6.367-1.969,6.367,1.969a.905.905,0,0,0,.527,0l6.631-2.054a.9.9,0,0,0,.64-.857v-9.9c.241-.29.478-.585.706-.886a9.473,9.473,0,0,0,2.308-5.4q0-.009,0-.019A6.784,6.784,0,0,0,26.933,959.336Zm0,1.809a4.949,4.949,0,0,1,4.973,4.946s0,.006,0,.009a8.029,8.029,0,0,1-1.94,4.325c-.925,1.219-2.021,2.4-3.033,3.533-1.012-1.132-2.118-2.312-3.042-3.533A8.023,8.023,0,0,1,21.96,966.1s0-.006,0-.009a4.948,4.948,0,0,1,4.973-4.946Zm0,1.507A3.467,3.467,0,1,0,30.4,966.12,3.48,3.48,0,0,0,26.933,962.653Zm0,1.809a1.658,1.658,0,1,1-1.658,1.658A1.644,1.644,0,0,1,26.933,964.462Zm-9.494,1.828,2.826.867a10.356,10.356,0,0,0,2,4.108v11.862l-4.822-1.489Zm6.631,7.179c.774.873,1.542,1.691,2.176,2.431a.9.9,0,0,0,1.366,0c.385-.449.827-.932,1.281-1.432v7.17l-4.822,1.489Z" transform="translate(-9 -959.336)" fill="#fff"/>
</svg>
