<svg width="27" height="14" viewBox="0 0 27 14" fill="none" xmlns="http://www.w3.org/2000/svg">
<path fill-rule="evenodd" clip-rule="evenodd" d="M25.7304 6.0469L21.6173 2.1407C21.3556 1.89278 21.0033 1.75208 20.6369 1.75208H18.5612V1.00499C18.5612 0.448913 18.0937 0 17.5146 0H5.5343C4.95864 0 4.48771 0.448953 4.48771 1.00499V1.16246L0.240535 1.63251L7.76635 2.57358L0.142822 3.3008L7.7395 4.33794L0.142822 4.97043L4.48797 5.75737L4.48767 7.73199H26.1421V6.99829C26.1421 6.63982 25.9921 6.29816 25.7304 6.0469ZM26.1428 10.5126V8.28754H4.48843V10.5126C4.48843 11.0676 4.95699 11.5176 5.53502 11.5176H6.93749C7.1398 10.1842 8.33643 9.1591 9.77727 9.1591C11.2181 9.1591 12.4147 10.1842 12.6171 11.5176H18.2932C18.4956 10.1842 19.6922 9.1591 21.133 9.1591C22.5774 9.1591 23.774 10.1842 23.9763 11.5176H25.0962C25.6743 11.5176 26.1428 11.0676 26.1428 10.5126ZM9.77659 9.82916C8.57647 9.82916 7.60661 10.7638 7.60661 11.9163C7.60661 13.0653 8.57647 14 9.77659 14C10.9767 14 11.9466 13.0653 11.9466 11.9163C11.9465 10.7638 10.9767 9.82916 9.77659 9.82916ZM9.77659 12.9581C9.17651 12.9581 8.69155 12.4891 8.69155 11.9162C8.69155 11.34 9.17651 10.8743 9.77659 10.8743C10.3766 10.8743 10.8616 11.34 10.8616 11.9162C10.8615 12.4891 10.3766 12.9581 9.77659 12.9581ZM21.1358 9.82916C19.9357 9.82916 18.9624 10.7638 18.9624 11.9163C18.9624 13.0653 19.9357 14 21.1358 14C22.3324 14 23.3058 13.0653 23.3058 11.9163C23.3058 10.7638 22.3324 9.82916 21.1358 9.82916ZM20.0508 11.9162C20.0508 12.4891 20.5357 12.9581 21.1358 12.9581C21.7324 12.9581 22.2208 12.4891 22.2208 11.9162C22.2208 11.34 21.7324 10.8743 21.1358 10.8743C20.5357 10.8743 20.0508 11.34 20.0508 11.9162ZM19.9566 6.17752H23.9372C24.0837 6.17752 24.157 6.00333 24.0489 5.90619L20.8288 2.95477C20.7974 2.92797 20.7556 2.9112 20.7137 2.9112H19.9566C19.8659 2.9112 19.7927 2.98157 19.7927 3.06867V6.02009C19.7927 6.10719 19.8659 6.17752 19.9566 6.17752Z" fill="white"/>
</svg>
