<svg width="16" height="17" viewBox="0 0 16 17" fill="none" xmlns="http://www.w3.org/2000/svg">
<path fill-rule="evenodd" clip-rule="evenodd" d="M14.9558 2.23839L15.8488 13.4926C15.9184 14.3958 15.6056 15.2932 14.9914 15.9562C14.3771 16.6192 13.5063 17 12.6024 17H3.25721C2.35322 17 1.48244 16.6192 0.868184 15.9562C0.253965 15.2932 -0.0588085 14.3958 0.0102931 13.4942L0.903731 2.23682C0.95916 1.51327 1.57264 0.945496 2.29971 0.945496H4.06393V3.55944C4.06393 3.88315 4.32596 4.14518 4.64967 4.14518C4.97299 4.14518 5.23541 3.88315 5.23541 3.55944V0.945496H10.6241V3.55944C10.6241 3.88315 10.8865 4.14518 11.2099 4.14518C11.5336 4.14518 11.7956 3.88315 11.7956 3.55944V0.945496H13.5598C14.2869 0.945496 14.9004 1.51327 14.9558 2.23839ZM7.53928 10.7908L10.5687 7.76143C10.7975 7.53261 10.7975 7.16167 10.5687 6.93284C10.3399 6.7044 9.96893 6.7044 9.74049 6.93284L7.12502 9.54831L6.11912 8.5428C5.89068 8.31397 5.51971 8.31397 5.29088 8.5428C5.06205 8.77163 5.06205 9.14221 5.29088 9.37104L6.71068 10.7908C6.8251 10.9053 6.97502 10.9626 7.12498 10.9626C7.2749 10.9626 7.42486 10.9053 7.53928 10.7908Z" fill="white"/>
</svg>
