<svg width="20" height="20" viewBox="0 0 20 20" fill="none" xmlns="http://www.w3.org/2000/svg">
<path fill-rule="evenodd" clip-rule="evenodd" d="M10.415 0.585L19.41 9.58C19.775 9.945 20 10.445 20 11C20 11.55 19.775 12.05 19.415 12.415L12.415 19.415C12.055 19.775 11.55 20 11 20C10.45 20 9.95 19.775 9.59 19.415L0.59 10.415C0.225 10.055 0 9.555 0 9V2C0 0.895 0.895 0 2 0H9C9.55 0 10.05 0.225 10.415 0.585ZM2 3.5C2 4.33 2.67 5 3.5 5C4.33 5 5 4.33 5 3.5C5 2.67 4.33 2 3.5 2C2.67 2 2 2.67 2 3.5Z" fill="white"/>
</svg>
